<mxfile host="Electron" modified="2023-05-25T18:14:43.494Z" agent="Mozilla/5.0 (Windows NT 10.0; Win64; x64) AppleWebKit/537.36 (KHTML, like Gecko) draw.io/21.2.8 Chrome/112.0.5615.165 Electron/24.2.0 Safari/537.36" etag="edrDczOo-zEk71itT9Lx" version="21.2.8" type="device">
  <diagram name="PÃ¡gina-1" id="oUnrrF5QUuxhHjYgOuA4">
    <mxGraphModel dx="2245" dy="820" grid="1" gridSize="10" guides="1" tooltips="1" connect="1" arrows="1" fold="1" page="1" pageScale="1" pageWidth="827" pageHeight="1169" math="0" shadow="0">
      <root>
        <mxCell id="0" />
        <mxCell id="1" parent="0" />
        <mxCell id="jKpdwoPJaRp0ngKXf8Cb-16" value="" style="rounded=0;whiteSpace=wrap;html=1;" parent="1" vertex="1">
          <mxGeometry x="580" y="375" width="120" height="30" as="geometry" />
        </mxCell>
        <mxCell id="jKpdwoPJaRp0ngKXf8Cb-17" value="&lt;u&gt;:Estudiante&lt;br&gt;&lt;/u&gt;" style="rounded=0;whiteSpace=wrap;html=1;" parent="1" vertex="1">
          <mxGeometry x="570" y="365" width="120" height="30" as="geometry" />
        </mxCell>
        <mxCell id="jKpdwoPJaRp0ngKXf8Cb-18" value="&lt;u&gt;:Sistema&lt;/u&gt;" style="rounded=0;whiteSpace=wrap;html=1;" parent="1" vertex="1">
          <mxGeometry x="120" y="365" width="120" height="30" as="geometry" />
        </mxCell>
        <mxCell id="jKpdwoPJaRp0ngKXf8Cb-19" value="" style="endArrow=none;html=1;rounded=0;exitX=0;exitY=1;exitDx=0;exitDy=0;" parent="1" source="jKpdwoPJaRp0ngKXf8Cb-20" edge="1">
          <mxGeometry width="50" height="50" relative="1" as="geometry">
            <mxPoint x="-200" y="394.5" as="sourcePoint" />
            <mxPoint x="120" y="390" as="targetPoint" />
          </mxGeometry>
        </mxCell>
        <mxCell id="jKpdwoPJaRp0ngKXf8Cb-20" value="res:= verEstudiantes(): Set &amp;lt;DTEstudiante&amp;gt;" style="text;html=1;strokeColor=none;fillColor=none;align=center;verticalAlign=middle;whiteSpace=wrap;rounded=0;" parent="1" vertex="1">
          <mxGeometry x="-200" y="370" width="300" height="20" as="geometry" />
        </mxCell>
        <mxCell id="jKpdwoPJaRp0ngKXf8Cb-21" value="" style="endArrow=none;html=1;rounded=0;exitX=1;exitY=0.75;exitDx=0;exitDy=0;entryX=0;entryY=0.75;entryDx=0;entryDy=0;" parent="1" source="jKpdwoPJaRp0ngKXf8Cb-18" target="jKpdwoPJaRp0ngKXf8Cb-17" edge="1">
          <mxGeometry width="50" height="50" relative="1" as="geometry">
            <mxPoint x="430" y="600" as="sourcePoint" />
            <mxPoint x="480" y="550" as="targetPoint" />
          </mxGeometry>
        </mxCell>
        <mxCell id="jKpdwoPJaRp0ngKXf8Cb-22" value="1* [foreach]: es:= next()" style="text;html=1;strokeColor=none;fillColor=none;align=center;verticalAlign=middle;whiteSpace=wrap;rounded=0;" parent="1" vertex="1">
          <mxGeometry x="240" y="350" width="330" height="40" as="geometry" />
        </mxCell>
        <mxCell id="jKpdwoPJaRp0ngKXf8Cb-23" value="&lt;u&gt;es:Estudiante&lt;/u&gt;" style="rounded=0;whiteSpace=wrap;html=1;" parent="1" vertex="1">
          <mxGeometry x="570" y="440" width="120" height="30" as="geometry" />
        </mxCell>
        <mxCell id="jKpdwoPJaRp0ngKXf8Cb-25" value="" style="endArrow=none;html=1;rounded=0;entryX=-0.018;entryY=0.66;entryDx=0;entryDy=0;entryPerimeter=0;" parent="1" target="jKpdwoPJaRp0ngKXf8Cb-23" edge="1">
          <mxGeometry width="50" height="50" relative="1" as="geometry">
            <mxPoint x="230" y="460" as="sourcePoint" />
            <mxPoint x="460" y="340" as="targetPoint" />
          </mxGeometry>
        </mxCell>
        <mxCell id="jKpdwoPJaRp0ngKXf8Cb-26" value="" style="endArrow=none;html=1;rounded=0;exitX=0.915;exitY=1;exitDx=0;exitDy=0;exitPerimeter=0;" parent="1" source="jKpdwoPJaRp0ngKXf8Cb-18" edge="1">
          <mxGeometry width="50" height="50" relative="1" as="geometry">
            <mxPoint x="230" y="400" as="sourcePoint" />
            <mxPoint x="230" y="460" as="targetPoint" />
          </mxGeometry>
        </mxCell>
        <mxCell id="jKpdwoPJaRp0ngKXf8Cb-27" value="El sistema devuelve en res un Set con todos los DTEstudiante guardados en dte" style="shape=note;whiteSpace=wrap;html=1;backgroundOutline=1;darkOpacity=0.05;size=10;fillColor=#fff2cc;strokeColor=#d6b656;" parent="1" vertex="1">
          <mxGeometry x="-80" y="420" width="180" height="60" as="geometry" />
        </mxCell>
        <mxCell id="jKpdwoPJaRp0ngKXf8Cb-28" value="" style="endArrow=none;dashed=1;html=1;dashPattern=1 3;strokeWidth=2;rounded=0;exitX=0;exitY=0;exitDx=130;exitDy=0;exitPerimeter=0;entryX=0;entryY=1;entryDx=0;entryDy=0;" parent="1" source="jKpdwoPJaRp0ngKXf8Cb-27" target="jKpdwoPJaRp0ngKXf8Cb-18" edge="1">
          <mxGeometry width="50" height="50" relative="1" as="geometry">
            <mxPoint x="240" y="430" as="sourcePoint" />
            <mxPoint x="290" y="380" as="targetPoint" />
          </mxGeometry>
        </mxCell>
        <mxCell id="jKpdwoPJaRp0ngKXf8Cb-29" value="2*: dte:= getDTEstudiane():DTEstudiante" style="text;html=1;strokeColor=none;fillColor=none;align=center;verticalAlign=middle;whiteSpace=wrap;rounded=0;" parent="1" vertex="1">
          <mxGeometry x="230" y="430" width="340" height="30" as="geometry" />
        </mxCell>
        <mxCell id="KldV7xvKtqb7RMdxpAQ--13" value="" style="endArrow=classic;html=1;rounded=0;entryX=0.72;entryY=-0.021;entryDx=0;entryDy=0;entryPerimeter=0;" parent="1" target="jKpdwoPJaRp0ngKXf8Cb-29" edge="1">
          <mxGeometry width="50" height="50" relative="1" as="geometry">
            <mxPoint x="344.64" y="430" as="sourcePoint" />
            <mxPoint x="465.36" y="430" as="targetPoint" />
          </mxGeometry>
        </mxCell>
        <mxCell id="KldV7xvKtqb7RMdxpAQ--14" value="" style="endArrow=classic;html=1;rounded=0;entryX=0.691;entryY=0.014;entryDx=0;entryDy=0;entryPerimeter=0;" parent="1" edge="1">
          <mxGeometry width="50" height="50" relative="1" as="geometry">
            <mxPoint x="353" y="350" as="sourcePoint" />
            <mxPoint x="473.72" y="350" as="targetPoint" />
          </mxGeometry>
        </mxCell>
        <mxCell id="N7OApIPz9vmQ0aFXefZd-1" value="&amp;lt;&amp;lt;DataType&amp;gt;&amp;gt;&lt;br&gt;DTEstudiante&lt;br&gt;----------------------------------&lt;br&gt;&lt;br&gt;&lt;div style=&quot;text-align: left;&quot;&gt;&lt;span style=&quot;background-color: initial;&quot;&gt;ci: String&lt;/span&gt;&lt;/div&gt;&lt;div style=&quot;text-align: left;&quot;&gt;&lt;span style=&quot;background-color: initial;&quot;&gt;nombre: String&lt;/span&gt;&lt;/div&gt;&lt;div style=&quot;text-align: left;&quot;&gt;&lt;br&gt;&lt;/div&gt;" style="shape=note;whiteSpace=wrap;html=1;backgroundOutline=1;darkOpacity=0.05;size=14;fillColor=#fff2cc;strokeColor=#d6b656;" parent="1" vertex="1">
          <mxGeometry x="490" y="490" width="140" height="110" as="geometry" />
        </mxCell>
      </root>
    </mxGraphModel>
  </diagram>
</mxfile>
